<?xml version="1.0" encoding="utf-8"?>
<!-- Generator: Adobe Illustrator 13.0.0, SVG Export Plug-In . SVG Version: 6.00 Build 14948)  -->
<!DOCTYPE svg PUBLIC "-//W3C//DTD SVG 1.1//EN" "http://www.w3.org/Graphics/SVG/1.1/DTD/svg11.dtd">
<svg version="1.1" id="Layer_2" xmlns="http://www.w3.org/2000/svg" xmlns:xlink="http://www.w3.org/1999/xlink" x="0px" y="0px"
	 width="411.005px" height="87.083px" viewBox="0 0 411.005 87.083" enable-background="new 0 0 411.005 87.083"
	 xml:space="preserve">
<g>
	<g>
		<path d="M371.083,38.5c-0.5,8.5-8,10-8,10h-80.999v17.75c1.5,8.5,10,9.162,10,9.162h84.999l0.234,11.338H281.93
			c0,0-15.104,0-17.264-13.134V13.134C266.826,0,281.93,0,281.93,0h95.388l-0.234,11.338h-84.999c0,0-8.5,0.662-10,9.162v17.75
			L371.083,38.5z"/>
		<path d="M101,0H12C0,1.667,0,13.333,0,13.333V87l17.917,0.083L17.667,59H97v28h16.667V16C113,1,101,0,101,0z M96.333,16.667
			v30.666h-79V16.667c0,0-0.667-5.667,8.333-5.667H88C97,11,96.333,16.667,96.333,16.667z"/>
		<polygon points="248.334,86.75 201.024,40.895 243.334,0 224.584,0 191.708,31.865 158.833,0 140.083,0 182.393,40.895 
			135.083,86.75 153.583,86.75 191.708,49.899 229.834,86.75 		"/>
		<g>
			<path d="M399.771,62.75c1.925,0,3.772,0.482,5.544,1.443c1.769,0.964,3.161,2.347,4.173,4.145
				c1.011,1.801,1.518,3.683,1.518,5.646c0,1.957-0.497,3.821-1.487,5.596c-0.993,1.772-2.379,3.158-4.151,4.151
				c-1.774,0.99-3.642,1.487-5.596,1.487c-1.958,0-3.821-0.497-5.596-1.487c-1.772-0.993-3.158-2.379-4.151-4.151
				c-0.99-1.774-1.487-3.639-1.487-5.596c0-1.964,0.507-3.846,1.518-5.646c1.012-1.798,2.402-3.181,4.174-4.145
				C395.996,63.232,397.844,62.75,399.771,62.75z M399.764,64.981c-1.542,0-3.021,0.384-4.435,1.154
				c-1.413,0.769-2.525,1.874-3.341,3.316c-0.814,1.439-1.221,2.946-1.221,4.525c0,1.567,0.396,3.06,1.191,4.483
				c0.795,1.42,1.905,2.529,3.329,3.328c1.424,0.801,2.914,1.198,4.476,1.198c1.567,0,3.065-0.397,4.484-1.198
				c1.419-0.799,2.526-1.908,3.327-3.328c0.797-1.424,1.198-2.916,1.198-4.483c0-1.579-0.406-3.086-1.221-4.525
				c-0.815-1.442-1.931-2.548-3.35-3.316C402.784,65.365,401.306,64.981,399.764,64.981z M394.721,79.935V68.113h2.402
				c2.252,0,3.512,0.01,3.782,0.029c0.796,0.068,1.415,0.225,1.855,0.472c0.442,0.247,0.812,0.626,1.105,1.136
				c0.299,0.509,0.445,1.073,0.445,1.693c0,0.853-0.277,1.582-0.832,2.188c-0.554,0.604-1.332,0.981-2.334,1.125
				c0.362,0.138,0.642,0.285,0.837,0.446c0.195,0.158,0.465,0.462,0.807,0.907c0.088,0.115,0.383,0.597,0.882,1.439l1.345,2.385
				h-3.014l-0.958-1.919c-0.647-1.289-1.188-2.099-1.62-2.434c-0.437-0.336-0.987-0.501-1.654-0.501h-0.622v4.854H394.721z
				 M397.147,73.201h0.962c1.368,0,2.22-0.054,2.549-0.159c0.331-0.104,0.591-0.291,0.781-0.556
				c0.193-0.265,0.289-0.567,0.289-0.904c0-0.328-0.094-0.619-0.28-0.874c-0.188-0.256-0.451-0.438-0.796-0.551
				c-0.346-0.109-1.192-0.166-2.543-0.166h-0.962V73.201z"/>
		</g>
	</g>
</g>
</svg>
